<?xml version="1.0" encoding="utf-8"?>
<!-- Generator: Adobe Illustrator 16.0.4, SVG Export Plug-In . SVG Version: 6.00 Build 0)  -->
<!DOCTYPE svg PUBLIC "-//W3C//DTD SVG 1.1//EN" "http://www.w3.org/Graphics/SVG/1.1/DTD/svg11.dtd">
<svg version="1.1" xmlns="http://www.w3.org/2000/svg" xmlns:xlink="http://www.w3.org/1999/xlink" x="0px" y="0px"
	 width="66.633px" height="110px" viewBox="0 0 66.633 110" enable-background="new 0 0 66.633 110" xml:space="preserve">
<g id="Body">
	<path fill="#2B6CE0" d="M58.089,98c0,6.627-5.373,12-12,12h-26c-6.627,0-12-5.373-12-12V16c0-6.627,5.373-12,12-12h26
		c6.627,0,12,5.373,12,12V98z"/>
</g>
<g id="Decals">
	<defs>
		<path id="SVGID_1_" d="M58.089,98c0,6.627-5.373,12-12,12h-26c-6.627,0-12-5.373-12-12V16c0-6.627,5.373-12,12-12h26
			c6.627,0,12,5.373,12,12V98z"/>
	</defs>
	<clipPath id="SVGID_2_">
		<use xlink:href="#SVGID_1_"  overflow="visible"/>
	</clipPath>
	<ellipse clip-path="url(#SVGID_2_)" fill="#2DA1E2" cx="14.255" cy="17.334" rx="12.5" ry="12.333"/>
	<circle clip-path="url(#SVGID_2_)" fill="#2DA1E2" cx="54.172" cy="32.918" r="6.417"/>
	<circle clip-path="url(#SVGID_2_)" fill="#2DA1E2" cx="32.005" cy="42.084" r="4.25"/>
	<circle clip-path="url(#SVGID_2_)" fill="#2DA1E2" cx="15.505" cy="75.584" r="13.75"/>
	<circle clip-path="url(#SVGID_2_)" fill="#2DA1E2" cx="52.505" cy="86.917" r="8.083"/>
	<circle clip-path="url(#SVGID_2_)" fill="#2DA1E2" cx="25.255" cy="108.834" r="12"/>
</g>
<g id="Spoiler">
	<line stroke="#2B6CE0" stroke-width="3" stroke-miterlimit="10" x1="15.089" y1="1.5" x2="51.089" y2="1.5"/>
	<line stroke="#2B6CE0" stroke-width="3" stroke-miterlimit="10" x1="20.589" y1="2" x2="20.589" y2="5"/>
	<line stroke="#2B6CE0" stroke-width="3" stroke-miterlimit="10" x1="45.589" y1="2" x2="45.589" y2="5"/>
</g>
<g id="Wing_mirrors">
	<path fill="#2B6CE0" d="M58.089,75.294c0,0,4.157-0.282,7-2.342s1.318-3.978-1.023-3.104c-2.342,0.875-5.977,1.947-5.977,1.947
		L58,75.294"/>
	<path fill="#2B6CE0" d="M8.544,75.294c0,0-4.157-0.282-7-2.342s-1.318-3.978,1.023-3.104c2.342,0.875,5.977,1.947,5.977,1.947
		l0.089,3.499"/>
</g>
<g id="Windscreen">
	<path opacity="0.5" fill="#9B9B9B" d="M12.089,70v15.169c21.5,5.083,21.5,5.083,43,0.629V70.832
		C33.589,73.16,33.589,73.16,12.089,70z"/>
</g>
<g id="Lights">
	<path opacity="0.5" fill="#9B9B9B" d="M18.881,107.491c-1.324-1.383-2.719-1.156-5.792-5.011s-3.965-0.924-3.456,0
		c3.038,5.516,8.67,6.939,9.249,6.746S19.182,107.805,18.881,107.491z"/>
	<path opacity="0.5" fill="#9B9B9B" d="M46.835,107.491c1.324-1.383,2.719-1.156,5.792-5.011s3.965-0.924,3.456,0
		c-3.038,5.516-8.67,6.939-9.249,6.746S46.535,107.805,46.835,107.491z"/>
</g>
<g id="Roof_Design">
	<path opacity="0.2" fill="#A5A5A5" d="M15.089,13h36c0,0-17.5,24.52,0,52h-36C15.089,65,33.089,39,15.089,13z"/>
</g>
<g id="Number">
	<g>
	</g>
	<g>
	</g>
	<g>
	</g>
	<g>
	</g>
	<g>
	</g>
	<g>
	</g>
	<g>
	</g>
	<g>
	</g>
	<g>
	</g>
	<g>
	</g>
	<g>
	</g>
	<g>
	</g>
	<g>
	</g>
	<g>
	</g>
	<g>
	</g>
</g>
</svg>
