<?xml version="1.0" encoding="utf-8"?>
<!-- Generator: Adobe Illustrator 16.0.4, SVG Export Plug-In . SVG Version: 6.00 Build 0)  -->
<!DOCTYPE svg PUBLIC "-//W3C//DTD SVG 1.1//EN" "http://www.w3.org/Graphics/SVG/1.1/DTD/svg11.dtd">
<svg version="1.1" xmlns="http://www.w3.org/2000/svg" xmlns:xlink="http://www.w3.org/1999/xlink" x="0px" y="0px"
	 width="62.633px" height="115px" viewBox="0 0 62.633 115" enable-background="new 0 0 62.633 115" xml:space="preserve">
<g id="Wing_mirrors">
	<path fill="#7C0015" stroke="#000000" stroke-miterlimit="10" d="M53.589,77.294c0,0,4.157-0.282,7-2.342s1.318-3.978-1.023-3.104
		c-2.342,0.875-5.977,1.947-5.977,1.947L53.5,77.294"/>
	<path fill="#7C0015" stroke="#000000" stroke-miterlimit="10" d="M9.044,77.294c0,0-4.157-0.282-7-2.342s-1.318-3.978,1.023-3.104
		c2.342,0.875,5.977,1.947,5.977,1.947l0.089,3.499"/>
</g>
<g id="Spoiler_1_">
	<polygon fill="#7C0015" stroke="#000000" stroke-miterlimit="10" points="13.089,1.5 13.089,4.5 16.089,4.5 16.089,11.5 
		19.089,11.5 19.089,4.5 42.089,4.5 42.089,11.5 45.089,11.5 45.089,4.5 48.089,4.5 48.089,1.5 	"/>
</g>
<g id="Body">
	<path fill="#7C0015" stroke="#000000" stroke-miterlimit="10" d="M56.089,102.5c0,6.627-5.373,12-12,12h-26
		c-6.627,0-12-5.373-12-12v-82c0-6.627,5.373-12,12-12h26c6.627,0,12,5.373,12,12V102.5z"/>
</g>
<g id="Layer_7">
	<defs>
		<path id="SVGID_1_" d="M56.589,103.273c0,6.752-5.087,12.727-11.98,12.727h-27.04c-6.893,0-12.98-5.974-12.98-12.727V19.727
			C4.589,12.974,10.676,8,17.569,8h27.04c6.893,0,11.98,4.974,11.98,11.727V103.273z"/>
	</defs>
	<clipPath id="SVGID_2_">
		<use xlink:href="#SVGID_1_"  overflow="visible"/>
	</clipPath>
</g>
<g id="Windscreen">
	<path opacity="0.4" fill="#9B9B9B" d="M9.589,72v15.169c21.5,5.083,21.5,5.083,43,0.629V72.832C31.089,75.16,31.089,75.16,9.589,72
		z"/>
</g>
<g id="Lights">
	<path opacity="0.4" fill="#9B9B9B" d="M16.381,111.491c-1.324-1.383-2.719-1.156-5.792-5.011s-3.965-0.924-3.456,0
		c3.038,5.516,8.67,6.939,9.249,6.746S16.682,111.805,16.381,111.491z"/>
	<path opacity="0.4" fill="#9B9B9B" d="M45.335,111.491c1.324-1.383,2.719-1.156,5.792-5.011s3.965-0.924,3.456,0
		c-3.038,5.516-8.67,6.939-9.249,6.746S45.035,111.805,45.335,111.491z"/>
</g>
<g id="Roof_Design">
	<path opacity="0.2" fill="#A5A5A5" d="M12.589,15h36c0,0-17.5,24.52,0,52h-36C12.589,67,30.589,41,12.589,15z"/>
</g>
</svg>
